# MagicaVoxel @ Ephtracy

# group
o 

# material
mtllib Vellum body.mtl
usemtl palette

# normals
vn -1 0 0
vn 1 0 0
vn 0 0 1
vn 0 0 -1
vn 0 -1 0
vn 0 1 0

# texcoords
vt 0.0644531 0.5
vt 0.939453 0.5
vt 0.990234 0.5

# verts
v -1.1 0.1 0.6
v -1.1 0.1 -0.6
v -1.1 1.1 0.6
v -1.1 1.1 -0.6
v -1 0 0.6
v -1 0 -0.6
v -1 0.1 0.7
v -1 0.1 0.6
v -1 0.1 -0.6
v -1 0.1 -0.7
v -1 1.1 0.7
v -1 1.1 0.6
v -1 1.1 -0.6
v -1 1.1 -0.7
v -1 1.2 0.6
v -1 1.2 -0.6
v -1 1.3 0.6
v -1 1.3 -0.6
v -0.9 0 0.7
v -0.9 0 0.6
v -0.9 0 -0.6
v -0.9 0 -0.7
v -0.9 0.1 0.8
v -0.9 0.1 0.7
v -0.9 0.1 0.6
v -0.9 0.1 -0.6
v -0.9 0.1 -0.7
v -0.9 0.1 -0.8
v -0.9 1.1 0.8
v -0.9 1.1 0.7
v -0.9 1.1 0.6
v -0.9 1.1 -0.6
v -0.9 1.1 -0.7
v -0.9 1.1 -0.8
v -0.9 1.2 0.7
v -0.9 1.2 0.6
v -0.9 1.2 -0.6
v -0.9 1.2 -0.7
v -0.9 1.3 0.7
v -0.9 1.3 0.6
v -0.9 1.3 -0.6
v -0.9 1.3 -0.7
v -0.8 0 0.8
v -0.8 0 0.7
v -0.8 0 -0.7
v -0.8 0 -0.8
v -0.8 0.1 0.9
v -0.8 0.1 0.8
v -0.8 0.1 0.7
v -0.8 0.1 -0.7
v -0.8 0.1 -0.8
v -0.8 0.1 -0.9
v -0.8 1.1 0.9
v -0.8 1.1 0.8
v -0.8 1.1 0.7
v -0.8 1.1 -0.7
v -0.8 1.1 -0.8
v -0.8 1.1 -0.9
v -0.8 1.2 0.8
v -0.8 1.2 0.7
v -0.8 1.2 -0.7
v -0.8 1.2 -0.8
v -0.8 1.3 0.8
v -0.8 1.3 0.7
v -0.8 1.3 -0.7
v -0.8 1.3 -0.8
v -0.7 0 0.9
v -0.7 0 0.8
v -0.7 0 -0.8
v -0.7 0 -0.9
v -0.7 0.1 1
v -0.7 0.1 0.9
v -0.7 0.1 0.8
v -0.7 0.1 -0.8
v -0.7 0.1 -0.9
v -0.7 0.1 -1
v -0.7 0.1 -1.2
v -0.7 0.2 -1.2
v -0.7 0.2 -1.3
v -0.7 0.3 -1.3
v -0.7 0.3 -1.4
v -0.7 0.4 -1.4
v -0.7 0.4 -1.5
v -0.7 0.8 -1.4
v -0.7 0.8 -1.5
v -0.7 0.9 -1.3
v -0.7 0.9 -1.4
v -0.7 1 -1.2
v -0.7 1 -1.3
v -0.7 1.1 1
v -0.7 1.1 0.9
v -0.7 1.1 0.8
v -0.7 1.1 -0.8
v -0.7 1.1 -0.9
v -0.7 1.1 -1
v -0.7 1.1 -1.2
v -0.7 1.2 0.9
v -0.7 1.2 0.8
v -0.7 1.2 -0.8
v -0.7 1.2 -0.9
v -0.7 1.3 0.9
v -0.7 1.3 0.8
v -0.7 1.3 -0.8
v -0.7 1.3 -0.9
v 0.1 1.2 0.1
v 0.1 1.2 -0.1
v 0.1 1.3 0.1
v 0.1 1.3 -0.1
v 0.3 0.4 1
v 0.3 0.4 0.9
v 0.3 0.5 1
v 0.3 0.5 0.9
v -0.0999999 1.2 0.1
v -0.0999999 1.2 -0.1
v -0.0999999 1.3 0.1
v -0.0999999 1.3 -0.1
v 0.2 0.4 1
v 0.2 0.4 0.9
v 0.2 0.5 1
v 0.2 0.5 0.9
v 0.7 0 0.9
v 0.7 0 0.8
v 0.7 0 -0.8
v 0.7 0 -0.9
v 0.7 0.1 1
v 0.7 0.1 0.9
v 0.7 0.1 0.8
v 0.7 0.1 -0.8
v 0.7 0.1 -0.9
v 0.7 0.1 -1
v 0.7 0.1 -1.2
v 0.7 0.2 -1.2
v 0.7 0.2 -1.3
v 0.7 0.3 -1.3
v 0.7 0.3 -1.4
v 0.7 0.4 -1.4
v 0.7 0.4 -1.5
v 0.7 0.8 -1.4
v 0.7 0.8 -1.5
v 0.7 0.9 -1.3
v 0.7 0.9 -1.4
v 0.7 1 -1.2
v 0.7 1 -1.3
v 0.7 1.1 1
v 0.7 1.1 0.9
v 0.7 1.1 0.8
v 0.7 1.1 -0.8
v 0.7 1.1 -0.9
v 0.7 1.1 -1
v 0.7 1.1 -1.2
v 0.7 1.2 0.9
v 0.7 1.2 0.8
v 0.7 1.2 -0.8
v 0.7 1.2 -0.9
v 0.7 1.3 0.9
v 0.7 1.3 0.8
v 0.7 1.3 -0.8
v 0.7 1.3 -0.9
v 0.8 0 0.8
v 0.8 0 0.7
v 0.8 0 -0.7
v 0.8 0 -0.8
v 0.8 0.1 0.9
v 0.8 0.1 0.8
v 0.8 0.1 0.7
v 0.8 0.1 -0.7
v 0.8 0.1 -0.8
v 0.8 0.1 -0.9
v 0.8 1.1 0.9
v 0.8 1.1 0.8
v 0.8 1.1 0.7
v 0.8 1.1 -0.7
v 0.8 1.1 -0.8
v 0.8 1.1 -0.9
v 0.8 1.2 0.8
v 0.8 1.2 0.7
v 0.8 1.2 -0.7
v 0.8 1.2 -0.8
v 0.8 1.3 0.8
v 0.8 1.3 0.7
v 0.8 1.3 -0.7
v 0.8 1.3 -0.8
v 0.9 0 0.7
v 0.9 0 0.6
v 0.9 0 -0.6
v 0.9 0 -0.7
v 0.9 0.1 0.8
v 0.9 0.1 0.7
v 0.9 0.1 0.6
v 0.9 0.1 -0.6
v 0.9 0.1 -0.7
v 0.9 0.1 -0.8
v 0.9 1.1 0.8
v 0.9 1.1 0.7
v 0.9 1.1 0.6
v 0.9 1.1 -0.6
v 0.9 1.1 -0.7
v 0.9 1.1 -0.8
v 0.9 1.2 0.7
v 0.9 1.2 0.6
v 0.9 1.2 -0.6
v 0.9 1.2 -0.7
v 0.9 1.3 0.7
v 0.9 1.3 0.6
v 0.9 1.3 -0.6
v 0.9 1.3 -0.7
v 1 0 0.6
v 1 0 -0.6
v 1 0.1 0.7
v 1 0.1 0.6
v 1 0.1 -0.6
v 1 0.1 -0.7
v 1 1.1 0.7
v 1 1.1 0.6
v 1 1.1 -0.6
v 1 1.1 -0.7
v 1 1.2 0.6
v 1 1.2 -0.6
v 1 1.3 0.6
v 1 1.3 -0.6
v 1.1 0.1 0.6
v 1.1 0.1 -0.6
v 1.1 1.1 0.6
v 1.1 1.1 -0.6
v -0.7 0.1 1
v -0.7 1.1 1
v 0.2 0.4 1
v 0.2 0.5 1
v 0.3 0.4 1
v 0.3 0.5 1
v 0.7 0.1 1
v 0.7 1.1 1
v -0.8 0.1 0.9
v -0.8 1.1 0.9
v -0.7 0 0.9
v -0.7 0.1 0.9
v -0.7 1.1 0.9
v -0.7 1.2 0.9
v -0.7 1.3 0.9
v 0.2 0.4 0.9
v 0.2 0.5 0.9
v 0.3 0.4 0.9
v 0.3 0.5 0.9
v 0.7 0 0.9
v 0.7 0.1 0.9
v 0.7 1.1 0.9
v 0.7 1.2 0.9
v 0.7 1.3 0.9
v 0.8 0.1 0.9
v 0.8 1.1 0.9
v -0.9 0.1 0.8
v -0.9 1.1 0.8
v -0.8 0 0.8
v -0.8 0.1 0.8
v -0.8 1.1 0.8
v -0.8 1.2 0.8
v -0.8 1.3 0.8
v -0.7 0 0.8
v -0.7 0.1 0.8
v -0.7 1.1 0.8
v -0.7 1.2 0.8
v -0.7 1.3 0.8
v 0.7 0 0.8
v 0.7 0.1 0.8
v 0.7 1.1 0.8
v 0.7 1.2 0.8
v 0.7 1.3 0.8
v 0.8 0 0.8
v 0.8 0.1 0.8
v 0.8 1.1 0.8
v 0.8 1.2 0.8
v 0.8 1.3 0.8
v 0.9 0.1 0.8
v 0.9 1.1 0.8
v -1 0.1 0.7
v -1 1.1 0.7
v -0.9 0 0.7
v -0.9 0.1 0.7
v -0.9 1.1 0.7
v -0.9 1.2 0.7
v -0.9 1.3 0.7
v -0.8 0 0.7
v -0.8 0.1 0.7
v -0.8 1.1 0.7
v -0.8 1.2 0.7
v -0.8 1.3 0.7
v 0.8 0 0.7
v 0.8 0.1 0.7
v 0.8 1.1 0.7
v 0.8 1.2 0.7
v 0.8 1.3 0.7
v 0.9 0 0.7
v 0.9 0.1 0.7
v 0.9 1.1 0.7
v 0.9 1.2 0.7
v 0.9 1.3 0.7
v 1 0.1 0.7
v 1 1.1 0.7
v -1.1 0.1 0.6
v -1.1 1.1 0.6
v -1 0 0.6
v -1 0.1 0.6
v -1 1.1 0.6
v -1 1.2 0.6
v -1 1.3 0.6
v -0.9 0 0.6
v -0.9 0.1 0.6
v -0.9 1.1 0.6
v -0.9 1.2 0.6
v -0.9 1.3 0.6
v 0.9 0 0.6
v 0.9 0.1 0.6
v 0.9 1.1 0.6
v 0.9 1.2 0.6
v 0.9 1.3 0.6
v 1 0 0.6
v 1 0.1 0.6
v 1 1.1 0.6
v 1 1.2 0.6
v 1 1.3 0.6
v 1.1 0.1 0.6
v 1.1 1.1 0.6
v -0.0999999 1.2 -0.1
v -0.0999999 1.3 -0.1
v 0.1 1.2 -0.1
v 0.1 1.3 -0.1
v -0.0999999 1.2 0.1
v -0.0999999 1.3 0.1
v 0.1 1.2 0.1
v 0.1 1.3 0.1
v -1.1 0.1 -0.6
v -1.1 1.1 -0.6
v -1 0 -0.6
v -1 0.1 -0.6
v -1 1.1 -0.6
v -1 1.2 -0.6
v -1 1.3 -0.6
v -0.9 0 -0.6
v -0.9 0.1 -0.6
v -0.9 1.1 -0.6
v -0.9 1.2 -0.6
v -0.9 1.3 -0.6
v 0.9 0 -0.6
v 0.9 0.1 -0.6
v 0.9 1.1 -0.6
v 0.9 1.2 -0.6
v 0.9 1.3 -0.6
v 1 0 -0.6
v 1 0.1 -0.6
v 1 1.1 -0.6
v 1 1.2 -0.6
v 1 1.3 -0.6
v 1.1 0.1 -0.6
v 1.1 1.1 -0.6
v -1 0.1 -0.7
v -1 1.1 -0.7
v -0.9 0 -0.7
v -0.9 0.1 -0.7
v -0.9 1.1 -0.7
v -0.9 1.2 -0.7
v -0.9 1.3 -0.7
v -0.8 0 -0.7
v -0.8 0.1 -0.7
v -0.8 1.1 -0.7
v -0.8 1.2 -0.7
v -0.8 1.3 -0.7
v 0.8 0 -0.7
v 0.8 0.1 -0.7
v 0.8 1.1 -0.7
v 0.8 1.2 -0.7
v 0.8 1.3 -0.7
v 0.9 0 -0.7
v 0.9 0.1 -0.7
v 0.9 1.1 -0.7
v 0.9 1.2 -0.7
v 0.9 1.3 -0.7
v 1 0.1 -0.7
v 1 1.1 -0.7
v -0.9 0.1 -0.8
v -0.9 1.1 -0.8
v -0.8 0 -0.8
v -0.8 0.1 -0.8
v -0.8 1.1 -0.8
v -0.8 1.2 -0.8
v -0.8 1.3 -0.8
v -0.7 0 -0.8
v -0.7 0.1 -0.8
v -0.7 1.1 -0.8
v -0.7 1.2 -0.8
v -0.7 1.3 -0.8
v 0.7 0 -0.8
v 0.7 0.1 -0.8
v 0.7 1.1 -0.8
v 0.7 1.2 -0.8
v 0.7 1.3 -0.8
v 0.8 0 -0.8
v 0.8 0.1 -0.8
v 0.8 1.1 -0.8
v 0.8 1.2 -0.8
v 0.8 1.3 -0.8
v 0.9 0.1 -0.8
v 0.9 1.1 -0.8
v -0.8 0.1 -0.9
v -0.8 1.1 -0.9
v -0.7 0 -0.9
v -0.7 0.1 -0.9
v -0.7 1.1 -0.9
v -0.7 1.2 -0.9
v -0.7 1.3 -0.9
v 0.7 0 -0.9
v 0.7 0.1 -0.9
v 0.7 1.1 -0.9
v 0.7 1.2 -0.9
v 0.7 1.3 -0.9
v 0.8 0.1 -0.9
v 0.8 1.1 -0.9
v -0.7 0.1 -1.2
v -0.7 0.2 -1.2
v -0.7 1 -1.2
v -0.7 1.1 -1.2
v 0.7 0.1 -1.2
v 0.7 0.2 -1.2
v 0.7 1 -1.2
v 0.7 1.1 -1.2
v -0.7 0.2 -1.3
v -0.7 0.3 -1.3
v -0.7 0.9 -1.3
v -0.7 1 -1.3
v 0.7 0.2 -1.3
v 0.7 0.3 -1.3
v 0.7 0.9 -1.3
v 0.7 1 -1.3
v -0.7 0.3 -1.4
v -0.7 0.4 -1.4
v -0.7 0.8 -1.4
v -0.7 0.9 -1.4
v 0.7 0.3 -1.4
v 0.7 0.4 -1.4
v 0.7 0.8 -1.4
v 0.7 0.9 -1.4
v -0.7 0.4 -1.5
v -0.7 0.8 -1.5
v 0.7 0.4 -1.5
v 0.7 0.8 -1.5
v -0.7 0 0.9
v 0.7 0 0.9
v -0.8 0 0.8
v -0.7 0 0.8
v 0.7 0 0.8
v 0.8 0 0.8
v -0.9 0 0.7
v -0.8 0 0.7
v 0.8 0 0.7
v 0.9 0 0.7
v -1 0 0.6
v -0.9 0 0.6
v 0.9 0 0.6
v 1 0 0.6
v -0.0999999 0 0.1
v 0.1 0 0.1
v -0.0999999 0 -0.1
v 0.1 0 -0.1
v -1 0 -0.6
v -0.9 0 -0.6
v 0.9 0 -0.6
v 1 0 -0.6
v -0.9 0 -0.7
v -0.8 0 -0.7
v 0.8 0 -0.7
v 0.9 0 -0.7
v -0.8 0 -0.8
v -0.7 0 -0.8
v 0.7 0 -0.8
v 0.8 0 -0.8
v -0.7 0 -0.9
v 0.7 0 -0.9
v -0.7 0.1 1
v 0.7 0.1 1
v -0.8 0.1 0.9
v -0.7 0.1 0.9
v 0.7 0.1 0.9
v 0.8 0.1 0.9
v -0.9 0.1 0.8
v -0.8 0.1 0.8
v -0.7 0.1 0.8
v 0.7 0.1 0.8
v 0.8 0.1 0.8
v 0.9 0.1 0.8
v -1 0.1 0.7
v -0.9 0.1 0.7
v -0.8 0.1 0.7
v 0.8 0.1 0.7
v 0.9 0.1 0.7
v 1 0.1 0.7
v -1.1 0.1 0.6
v -1 0.1 0.6
v -0.9 0.1 0.6
v 0.9 0.1 0.6
v 1 0.1 0.6
v 1.1 0.1 0.6
v -1.1 0.1 -0.6
v -1 0.1 -0.6
v -0.9 0.1 -0.6
v 0.9 0.1 -0.6
v 1 0.1 -0.6
v 1.1 0.1 -0.6
v -1 0.1 -0.7
v -0.9 0.1 -0.7
v -0.8 0.1 -0.7
v 0.8 0.1 -0.7
v 0.9 0.1 -0.7
v 1 0.1 -0.7
v -0.9 0.1 -0.8
v -0.8 0.1 -0.8
v -0.7 0.1 -0.8
v 0.7 0.1 -0.8
v 0.8 0.1 -0.8
v 0.9 0.1 -0.8
v -0.8 0.1 -0.9
v -0.7 0.1 -0.9
v 0.7 0.1 -0.9
v 0.8 0.1 -0.9
v -0.7 0.1 -1
v 0.7 0.1 -1
v -0.7 0.1 -1.2
v 0.7 0.1 -1.2
v -0.7 0.2 -1.2
v 0.7 0.2 -1.2
v -0.7 0.2 -1.3
v 0.7 0.2 -1.3
v -0.7 0.3 -1.3
v 0.7 0.3 -1.3
v -0.7 0.3 -1.4
v 0.7 0.3 -1.4
v -0.7 0.4 -1.4
v 0.7 0.4 -1.4
v -0.7 0.4 -1.5
v 0.7 0.4 -1.5
v 0.2 0.5 1
v 0.3 0.5 1
v 0.2 0.5 0.9
v 0.3 0.5 0.9
v 0.2 0.4 1
v 0.3 0.4 1
v 0.2 0.4 0.9
v 0.3 0.4 0.9
v -0.7 0.8 -1.4
v 0.7 0.8 -1.4
v -0.7 0.8 -1.5
v 0.7 0.8 -1.5
v -0.7 0.9 -1.3
v 0.7 0.9 -1.3
v -0.7 0.9 -1.4
v 0.7 0.9 -1.4
v -0.7 1 -1.2
v 0.7 1 -1.2
v -0.7 1 -1.3
v 0.7 1 -1.3
v -0.7 1.1 1
v 0.7 1.1 1
v -0.8 1.1 0.9
v -0.7 1.1 0.9
v 0.7 1.1 0.9
v 0.8 1.1 0.9
v -0.9 1.1 0.8
v -0.8 1.1 0.8
v -0.7 1.1 0.8
v 0.7 1.1 0.8
v 0.8 1.1 0.8
v 0.9 1.1 0.8
v -1 1.1 0.7
v -0.9 1.1 0.7
v -0.8 1.1 0.7
v 0.8 1.1 0.7
v 0.9 1.1 0.7
v 1 1.1 0.7
v -1.1 1.1 0.6
v -1 1.1 0.6
v -0.9 1.1 0.6
v 0.9 1.1 0.6
v 1 1.1 0.6
v 1.1 1.1 0.6
v -1.1 1.1 -0.6
v -1 1.1 -0.6
v -0.9 1.1 -0.6
v 0.9 1.1 -0.6
v 1 1.1 -0.6
v 1.1 1.1 -0.6
v -1 1.1 -0.7
v -0.9 1.1 -0.7
v -0.8 1.1 -0.7
v 0.8 1.1 -0.7
v 0.9 1.1 -0.7
v 1 1.1 -0.7
v -0.9 1.1 -0.8
v -0.8 1.1 -0.8
v -0.7 1.1 -0.8
v 0.7 1.1 -0.8
v 0.8 1.1 -0.8
v 0.9 1.1 -0.8
v -0.8 1.1 -0.9
v -0.7 1.1 -0.9
v 0.7 1.1 -0.9
v 0.8 1.1 -0.9
v -0.7 1.1 -1
v 0.7 1.1 -1
v -0.7 1.1 -1.2
v 0.7 1.1 -1.2
v -0.0999999 1.2 0.1
v 0.1 1.2 0.1
v -0.0999999 1.2 -0.1
v 0.1 1.2 -0.1
v -0.7 1.3 0.9
v 0.7 1.3 0.9
v -0.8 1.3 0.8
v -0.7 1.3 0.8
v 0.7 1.3 0.8
v 0.8 1.3 0.8
v -0.9 1.3 0.7
v -0.8 1.3 0.7
v 0.8 1.3 0.7
v 0.9 1.3 0.7
v -1 1.3 0.6
v -0.9 1.3 0.6
v 0.9 1.3 0.6
v 1 1.3 0.6
v -0.0999999 1.3 0.1
v 0.1 1.3 0.1
v -0.0999999 1.3 -0.1
v 0.1 1.3 -0.1
v -1 1.3 -0.6
v -0.9 1.3 -0.6
v 0.9 1.3 -0.6
v 1 1.3 -0.6
v -0.9 1.3 -0.7
v -0.8 1.3 -0.7
v 0.8 1.3 -0.7
v 0.9 1.3 -0.7
v -0.8 1.3 -0.8
v -0.7 1.3 -0.8
v 0.7 1.3 -0.8
v 0.8 1.3 -0.8
v -0.7 1.3 -0.9
v 0.7 1.3 -0.9

# faces
f 3/2/1 2/2/1 1/2/1
f 4/2/1 2/2/1 3/2/1
f 8/2/1 6/2/1 5/2/1
f 9/2/1 6/2/1 8/2/1
f 11/2/1 8/2/1 7/2/1
f 12/2/1 8/2/1 11/2/1
f 13/2/1 10/2/1 9/2/1
f 14/2/1 10/2/1 13/2/1
f 15/2/1 13/2/1 12/2/1
f 16/2/1 13/2/1 15/2/1
f 17/1/1 16/1/1 15/1/1
f 18/1/1 16/1/1 17/1/1
f 24/2/1 20/2/1 19/2/1
f 25/2/1 20/2/1 24/2/1
f 26/2/1 22/2/1 21/2/1
f 27/2/1 22/2/1 26/2/1
f 29/2/1 24/2/1 23/2/1
f 30/2/1 24/2/1 29/2/1
f 33/2/1 28/2/1 27/2/1
f 34/2/1 28/2/1 33/2/1
f 35/2/1 31/2/1 30/2/1
f 36/2/1 31/2/1 35/2/1
f 37/2/1 33/2/1 32/2/1
f 38/2/1 33/2/1 37/2/1
f 39/1/1 36/1/1 35/1/1
f 40/1/1 36/1/1 39/1/1
f 41/1/1 38/1/1 37/1/1
f 42/1/1 38/1/1 41/1/1
f 48/2/1 44/2/1 43/2/1
f 49/2/1 44/2/1 48/2/1
f 50/2/1 46/2/1 45/2/1
f 51/2/1 46/2/1 50/2/1
f 53/2/1 48/2/1 47/2/1
f 54/2/1 48/2/1 53/2/1
f 57/2/1 52/2/1 51/2/1
f 58/2/1 52/2/1 57/2/1
f 59/2/1 55/2/1 54/2/1
f 60/2/1 55/2/1 59/2/1
f 61/2/1 57/2/1 56/2/1
f 62/2/1 57/2/1 61/2/1
f 63/1/1 60/1/1 59/1/1
f 64/1/1 60/1/1 63/1/1
f 65/1/1 62/1/1 61/1/1
f 66/1/1 62/1/1 65/1/1
f 72/2/1 68/2/1 67/2/1
f 73/2/1 68/2/1 72/2/1
f 74/2/1 70/2/1 69/2/1
f 75/2/1 70/2/1 74/2/1
f 78/3/1 77/3/1 76/3/1
f 80/3/1 79/3/1 78/3/1
f 82/3/1 81/3/1 80/3/1
f 84/3/1 82/3/1 80/3/1
f 84/3/1 83/3/1 82/3/1
f 85/3/1 83/3/1 84/3/1
f 86/3/1 80/3/1 78/3/1
f 86/3/1 84/3/1 80/3/1
f 87/3/1 84/3/1 86/3/1
f 88/3/1 78/3/1 76/3/1
f 88/3/1 86/3/1 78/3/1
f 89/3/1 86/3/1 88/3/1
f 90/2/1 72/2/1 71/2/1
f 91/2/1 72/2/1 90/2/1
f 94/2/1 76/2/1 75/2/1
f 95/3/1 88/3/1 76/3/1
f 95/2/1 76/2/1 94/2/1
f 96/3/1 88/3/1 95/3/1
f 97/2/1 92/2/1 91/2/1
f 98/2/1 92/2/1 97/2/1
f 99/2/1 94/2/1 93/2/1
f 100/2/1 94/2/1 99/2/1
f 101/1/1 98/1/1 97/1/1
f 102/1/1 98/1/1 101/1/1
f 103/1/1 100/1/1 99/1/1
f 104/1/1 100/1/1 103/1/1
f 107/1/1 106/1/1 105/1/1
f 108/1/1 106/1/1 107/1/1
f 111/2/1 110/2/1 109/2/1
f 112/2/1 110/2/1 111/2/1
f 113/1/2 114/1/2 115/1/2
f 115/1/2 114/1/2 116/1/2
f 117/2/2 118/2/2 119/2/2
f 119/2/2 118/2/2 120/2/2
f 121/2/2 122/2/2 126/2/2
f 126/2/2 122/2/2 127/2/2
f 123/2/2 124/2/2 128/2/2
f 128/2/2 124/2/2 129/2/2
f 130/3/2 131/3/2 132/3/2
f 132/3/2 133/3/2 134/3/2
f 134/3/2 135/3/2 136/3/2
f 134/3/2 136/3/2 138/3/2
f 136/3/2 137/3/2 138/3/2
f 138/3/2 137/3/2 139/3/2
f 132/3/2 134/3/2 140/3/2
f 134/3/2 138/3/2 140/3/2
f 140/3/2 138/3/2 141/3/2
f 130/3/2 132/3/2 142/3/2
f 132/3/2 140/3/2 142/3/2
f 142/3/2 140/3/2 143/3/2
f 125/2/2 126/2/2 144/2/2
f 144/2/2 126/2/2 145/2/2
f 129/2/2 130/2/2 148/2/2
f 130/3/2 142/3/2 149/3/2
f 148/2/2 130/2/2 149/2/2
f 149/3/2 142/3/2 150/3/2
f 145/2/2 146/2/2 151/2/2
f 151/2/2 146/2/2 152/2/2
f 147/2/2 148/2/2 153/2/2
f 153/2/2 148/2/2 154/2/2
f 151/1/2 152/1/2 155/1/2
f 155/1/2 152/1/2 156/1/2
f 153/1/2 154/1/2 157/1/2
f 157/1/2 154/1/2 158/1/2
f 159/2/2 160/2/2 164/2/2
f 164/2/2 160/2/2 165/2/2
f 161/2/2 162/2/2 166/2/2
f 166/2/2 162/2/2 167/2/2
f 163/2/2 164/2/2 169/2/2
f 169/2/2 164/2/2 170/2/2
f 167/2/2 168/2/2 173/2/2
f 173/2/2 168/2/2 174/2/2
f 170/2/2 171/2/2 175/2/2
f 175/2/2 171/2/2 176/2/2
f 172/2/2 173/2/2 177/2/2
f 177/2/2 173/2/2 178/2/2
f 175/1/2 176/1/2 179/1/2
f 179/1/2 176/1/2 180/1/2
f 177/1/2 178/1/2 181/1/2
f 181/1/2 178/1/2 182/1/2
f 183/2/2 184/2/2 188/2/2
f 188/2/2 184/2/2 189/2/2
f 185/2/2 186/2/2 190/2/2
f 190/2/2 186/2/2 191/2/2
f 187/2/2 188/2/2 193/2/2
f 193/2/2 188/2/2 194/2/2
f 191/2/2 192/2/2 197/2/2
f 197/2/2 192/2/2 198/2/2
f 194/2/2 195/2/2 199/2/2
f 199/2/2 195/2/2 200/2/2
f 196/2/2 197/2/2 201/2/2
f 201/2/2 197/2/2 202/2/2
f 199/1/2 200/1/2 203/1/2
f 203/1/2 200/1/2 204/1/2
f 201/1/2 202/1/2 205/1/2
f 205/1/2 202/1/2 206/1/2
f 207/2/2 208/2/2 210/2/2
f 210/2/2 208/2/2 211/2/2
f 209/2/2 210/2/2 213/2/2
f 213/2/2 210/2/2 214/2/2
f 211/2/2 212/2/2 215/2/2
f 215/2/2 212/2/2 216/2/2
f 214/2/2 215/2/2 217/2/2
f 217/2/2 215/2/2 218/2/2
f 217/1/2 218/1/2 219/1/2
f 219/1/2 218/1/2 220/1/2
f 221/2/2 222/2/2 223/2/2
f 223/2/2 222/2/2 224/2/2
f 227/2/3 226/2/3 225/2/3
f 228/2/3 226/2/3 227/2/3
f 229/2/3 227/2/3 225/2/3
f 230/2/3 226/2/3 228/2/3
f 231/2/3 229/2/3 225/2/3
f 231/2/3 230/2/3 229/2/3
f 232/2/3 226/2/3 230/2/3
f 232/2/3 230/2/3 231/2/3
f 236/2/3 234/2/3 233/2/3
f 237/2/3 234/2/3 236/2/3
f 242/2/3 241/2/3 240/2/3
f 243/2/3 241/2/3 242/2/3
f 244/2/3 236/2/3 235/2/3
f 245/2/3 236/2/3 244/2/3
f 246/2/3 238/2/3 237/2/3
f 247/1/3 239/1/3 238/1/3
f 247/2/3 238/2/3 246/2/3
f 248/1/3 239/1/3 247/1/3
f 249/2/3 246/2/3 245/2/3
f 250/2/3 246/2/3 249/2/3
f 254/2/3 252/2/3 251/2/3
f 255/2/3 252/2/3 254/2/3
f 258/2/3 254/2/3 253/2/3
f 259/2/3 254/2/3 258/2/3
f 260/2/3 256/2/3 255/2/3
f 261/1/3 257/1/3 256/1/3
f 261/2/3 256/2/3 260/2/3
f 262/1/3 257/1/3 261/1/3
f 268/2/3 264/2/3 263/2/3
f 269/2/3 264/2/3 268/2/3
f 270/2/3 266/2/3 265/2/3
f 271/1/3 267/1/3 266/1/3
f 271/2/3 266/2/3 270/2/3
f 272/1/3 267/1/3 271/1/3
f 273/2/3 270/2/3 269/2/3
f 274/2/3 270/2/3 273/2/3
f 278/2/3 276/2/3 275/2/3
f 279/2/3 276/2/3 278/2/3
f 282/2/3 278/2/3 277/2/3
f 283/2/3 278/2/3 282/2/3
f 284/2/3 280/2/3 279/2/3
f 285/1/3 281/1/3 280/1/3
f 285/2/3 280/2/3 284/2/3
f 286/1/3 281/1/3 285/1/3
f 292/2/3 288/2/3 287/2/3
f 293/2/3 288/2/3 292/2/3
f 294/2/3 290/2/3 289/2/3
f 295/1/3 291/1/3 290/1/3
f 295/2/3 290/2/3 294/2/3
f 296/1/3 291/1/3 295/1/3
f 297/2/3 294/2/3 293/2/3
f 298/2/3 294/2/3 297/2/3
f 302/2/3 300/2/3 299/2/3
f 303/2/3 300/2/3 302/2/3
f 306/2/3 302/2/3 301/2/3
f 307/2/3 302/2/3 306/2/3
f 308/2/3 304/2/3 303/2/3
f 309/1/3 305/1/3 304/1/3
f 309/2/3 304/2/3 308/2/3
f 310/1/3 305/1/3 309/1/3
f 316/2/3 312/2/3 311/2/3
f 317/2/3 312/2/3 316/2/3
f 318/2/3 314/2/3 313/2/3
f 319/1/3 315/1/3 314/1/3
f 319/2/3 314/2/3 318/2/3
f 320/1/3 315/1/3 319/1/3
f 321/2/3 318/2/3 317/2/3
f 322/2/3 318/2/3 321/2/3
f 325/1/3 324/1/3 323/1/3
f 326/1/3 324/1/3 325/1/3
f 327/1/4 328/1/4 329/1/4
f 329/1/4 328/1/4 330/1/4
f 331/2/4 332/2/4 334/2/4
f 334/2/4 332/2/4 335/2/4
f 333/2/4 334/2/4 338/2/4
f 338/2/4 334/2/4 339/2/4
f 335/2/4 336/2/4 340/2/4
f 336/1/4 337/1/4 341/1/4
f 340/2/4 336/2/4 341/2/4
f 341/1/4 337/1/4 342/1/4
f 343/2/4 344/2/4 348/2/4
f 348/2/4 344/2/4 349/2/4
f 345/2/4 346/2/4 350/2/4
f 346/1/4 347/1/4 351/1/4
f 350/2/4 346/2/4 351/2/4
f 351/1/4 347/1/4 352/1/4
f 349/2/4 350/2/4 353/2/4
f 353/2/4 350/2/4 354/2/4
f 355/2/4 356/2/4 358/2/4
f 358/2/4 356/2/4 359/2/4
f 357/2/4 358/2/4 362/2/4
f 362/2/4 358/2/4 363/2/4
f 359/2/4 360/2/4 364/2/4
f 360/1/4 361/1/4 365/1/4
f 364/2/4 360/2/4 365/2/4
f 365/1/4 361/1/4 366/1/4
f 367/2/4 368/2/4 372/2/4
f 372/2/4 368/2/4 373/2/4
f 369/2/4 370/2/4 374/2/4
f 370/1/4 371/1/4 375/1/4
f 374/2/4 370/2/4 375/2/4
f 375/1/4 371/1/4 376/1/4
f 373/2/4 374/2/4 377/2/4
f 377/2/4 374/2/4 378/2/4
f 379/2/4 380/2/4 382/2/4
f 382/2/4 380/2/4 383/2/4
f 381/2/4 382/2/4 386/2/4
f 386/2/4 382/2/4 387/2/4
f 383/2/4 384/2/4 388/2/4
f 384/1/4 385/1/4 389/1/4
f 388/2/4 384/2/4 389/2/4
f 389/1/4 385/1/4 390/1/4
f 391/2/4 392/2/4 396/2/4
f 396/2/4 392/2/4 397/2/4
f 393/2/4 394/2/4 398/2/4
f 394/1/4 395/1/4 399/1/4
f 398/2/4 394/2/4 399/2/4
f 399/1/4 395/1/4 400/1/4
f 397/2/4 398/2/4 401/2/4
f 401/2/4 398/2/4 402/2/4
f 403/2/4 404/2/4 406/2/4
f 406/2/4 404/2/4 407/2/4
f 405/2/4 406/2/4 410/2/4
f 410/2/4 406/2/4 411/2/4
f 407/2/4 408/2/4 412/2/4
f 408/1/4 409/1/4 413/1/4
f 412/2/4 408/2/4 413/2/4
f 413/1/4 409/1/4 414/1/4
f 411/2/4 412/2/4 415/2/4
f 415/2/4 412/2/4 416/2/4
f 417/3/4 418/3/4 421/3/4
f 421/3/4 418/3/4 422/3/4
f 419/3/4 420/3/4 423/3/4
f 423/3/4 420/3/4 424/3/4
f 425/3/4 426/3/4 429/3/4
f 429/3/4 426/3/4 430/3/4
f 427/3/4 428/3/4 431/3/4
f 431/3/4 428/3/4 432/3/4
f 433/3/4 434/3/4 437/3/4
f 437/3/4 434/3/4 438/3/4
f 435/3/4 436/3/4 439/3/4
f 439/3/4 436/3/4 440/3/4
f 441/3/4 442/3/4 443/3/4
f 443/3/4 442/3/4 444/3/4
f 448/2/5 446/2/5 445/2/5
f 449/2/5 446/2/5 448/2/5
f 452/2/5 448/2/5 447/2/5
f 452/2/5 450/2/5 449/2/5
f 452/2/5 449/2/5 448/2/5
f 453/2/5 450/2/5 452/2/5
f 456/2/5 452/2/5 451/2/5
f 456/2/5 454/2/5 453/2/5
f 456/2/5 453/2/5 452/2/5
f 457/2/5 454/2/5 456/2/5
f 459/2/5 456/2/5 455/2/5
f 459/2/5 458/2/5 457/2/5
f 459/2/5 457/2/5 456/2/5
f 460/2/5 458/2/5 459/2/5
f 461/2/5 459/2/5 455/2/5
f 461/1/5 460/1/5 459/1/5
f 462/2/5 458/2/5 460/2/5
f 462/1/5 460/1/5 461/1/5
f 463/2/5 461/2/5 455/2/5
f 463/2/5 462/2/5 461/2/5
f 464/2/5 462/2/5 463/2/5
f 465/2/5 458/2/5 462/2/5
f 465/2/5 462/2/5 464/2/5
f 466/2/5 458/2/5 465/2/5
f 467/2/5 465/2/5 464/2/5
f 468/2/5 465/2/5 467/2/5
f 469/2/5 465/2/5 468/2/5
f 470/2/5 465/2/5 469/2/5
f 471/2/5 469/2/5 468/2/5
f 472/2/5 469/2/5 471/2/5
f 473/2/5 469/2/5 472/2/5
f 474/2/5 469/2/5 473/2/5
f 475/2/5 473/2/5 472/2/5
f 476/2/5 473/2/5 475/2/5
f 480/2/5 478/2/5 477/2/5
f 481/2/5 478/2/5 480/2/5
f 484/2/5 480/2/5 479/2/5
f 485/2/5 480/2/5 484/2/5
f 486/2/5 482/2/5 481/2/5
f 487/2/5 482/2/5 486/2/5
f 490/2/5 484/2/5 483/2/5
f 491/2/5 484/2/5 490/2/5
f 492/2/5 488/2/5 487/2/5
f 493/2/5 488/2/5 492/2/5
f 496/2/5 490/2/5 489/2/5
f 497/2/5 490/2/5 496/2/5
f 498/2/5 494/2/5 493/2/5
f 499/2/5 494/2/5 498/2/5
f 501/2/5 496/2/5 495/2/5
f 502/2/5 496/2/5 501/2/5
f 505/2/5 500/2/5 499/2/5
f 506/2/5 500/2/5 505/2/5
f 507/2/5 503/2/5 502/2/5
f 508/2/5 503/2/5 507/2/5
f 511/2/5 505/2/5 504/2/5
f 512/2/5 505/2/5 511/2/5
f 513/2/5 509/2/5 508/2/5
f 514/2/5 509/2/5 513/2/5
f 517/2/5 511/2/5 510/2/5
f 518/2/5 511/2/5 517/2/5
f 519/2/5 515/2/5 514/2/5
f 520/2/5 515/2/5 519/2/5
f 521/2/5 517/2/5 516/2/5
f 522/2/5 517/2/5 521/2/5
f 523/2/5 521/2/5 520/2/5
f 524/2/5 521/2/5 523/2/5
f 525/3/5 524/3/5 523/3/5
f 526/3/5 524/3/5 525/3/5
f 529/3/5 528/3/5 527/3/5
f 530/3/5 528/3/5 529/3/5
f 533/3/5 532/3/5 531/3/5
f 534/3/5 532/3/5 533/3/5
f 537/3/5 536/3/5 535/3/5
f 538/3/5 536/3/5 537/3/5
f 541/2/5 540/2/5 539/2/5
f 542/2/5 540/2/5 541/2/5
f 543/2/6 544/2/6 545/2/6
f 545/2/6 544/2/6 546/2/6
f 547/3/6 548/3/6 549/3/6
f 549/3/6 548/3/6 550/3/6
f 551/3/6 552/3/6 553/3/6
f 553/3/6 552/3/6 554/3/6
f 555/3/6 556/3/6 557/3/6
f 557/3/6 556/3/6 558/3/6
f 559/2/6 560/2/6 562/2/6
f 562/2/6 560/2/6 563/2/6
f 561/2/6 562/2/6 566/2/6
f 566/2/6 562/2/6 567/2/6
f 563/2/6 564/2/6 568/2/6
f 568/2/6 564/2/6 569/2/6
f 565/2/6 566/2/6 572/2/6
f 572/2/6 566/2/6 573/2/6
f 569/2/6 570/2/6 574/2/6
f 574/2/6 570/2/6 575/2/6
f 571/2/6 572/2/6 578/2/6
f 578/2/6 572/2/6 579/2/6
f 575/2/6 576/2/6 580/2/6
f 580/2/6 576/2/6 581/2/6
f 577/2/6 578/2/6 583/2/6
f 583/2/6 578/2/6 584/2/6
f 581/2/6 582/2/6 587/2/6
f 587/2/6 582/2/6 588/2/6
f 584/2/6 585/2/6 589/2/6
f 589/2/6 585/2/6 590/2/6
f 586/2/6 587/2/6 593/2/6
f 593/2/6 587/2/6 594/2/6
f 590/2/6 591/2/6 595/2/6
f 595/2/6 591/2/6 596/2/6
f 592/2/6 593/2/6 599/2/6
f 599/2/6 593/2/6 600/2/6
f 596/2/6 597/2/6 601/2/6
f 601/2/6 597/2/6 602/2/6
f 598/2/6 599/2/6 603/2/6
f 603/2/6 599/2/6 604/2/6
f 602/2/6 603/2/6 605/2/6
f 605/2/6 603/2/6 606/2/6
f 605/3/6 606/3/6 607/3/6
f 607/3/6 606/3/6 608/3/6
f 609/1/6 610/1/6 611/1/6
f 611/1/6 610/1/6 612/1/6
f 613/1/6 614/1/6 616/1/6
f 616/1/6 614/1/6 617/1/6
f 615/1/6 616/1/6 620/1/6
f 617/1/6 618/1/6 620/1/6
f 616/1/6 617/1/6 620/1/6
f 620/1/6 618/1/6 621/1/6
f 619/1/6 620/1/6 624/1/6
f 621/1/6 622/1/6 624/1/6
f 620/1/6 621/1/6 624/1/6
f 624/1/6 622/1/6 625/1/6
f 623/1/6 624/1/6 627/1/6
f 625/1/6 626/1/6 627/1/6
f 624/1/6 625/1/6 627/1/6
f 627/1/6 626/1/6 628/1/6
f 623/1/6 627/1/6 629/1/6
f 628/1/6 626/1/6 630/1/6
f 623/1/6 629/1/6 631/1/6
f 629/1/6 630/1/6 631/1/6
f 631/1/6 630/1/6 632/1/6
f 630/1/6 626/1/6 633/1/6
f 632/1/6 630/1/6 633/1/6
f 633/1/6 626/1/6 634/1/6
f 632/1/6 633/1/6 635/1/6
f 635/1/6 633/1/6 636/1/6
f 636/1/6 633/1/6 637/1/6
f 637/1/6 633/1/6 638/1/6
f 636/1/6 637/1/6 639/1/6
f 639/1/6 637/1/6 640/1/6
f 640/1/6 637/1/6 641/1/6
f 641/1/6 637/1/6 642/1/6
f 640/1/6 641/1/6 643/1/6
f 643/1/6 641/1/6 644/1/6
